<?xml version="1.0" encoding="utf-8"?>
<!-- Generator: Adobe Illustrator 25.0.0, SVG Export Plug-In . SVG Version: 6.00 Build 0)  -->
<svg version="1.1" id="Layer_1" xmlns="http://www.w3.org/2000/svg" xmlns:xlink="http://www.w3.org/1999/xlink" x="0px" y="0px"
	 viewBox="0 0 242.8 517.9" style="enable-background:new 0 0 242.8 517.9;" xml:space="preserve">
<style type="text/css">
	.st0{fill:#CFCFCF;}
	.st1{fill:#DF88FF;}
	.st2{fill:#72C001;}
	.st3{fill:#04C4FF;}
	.st4{fill:#EC7E07;}
	.st5{fill:#FF5584;}
	.st6{fill:#00BD93;}
	.st7{fill:#D3B3B0;}
	.st8{fill:none;}
	.st9{font-family:'Helvetica';}
	.st10{font-size:8px;}
	.st11{font-size:7px;}
	.st12{fill:#4C463E;}
	.st13{font-size:14px;}
	.st14{font-size:7.4068px;}
	.st15{fill:none;stroke:#231F20;stroke-width:0.25;stroke-miterlimit:10;}
	.st16{font-family:'Helvetica-Bold';}
	.st17{font-size:17px;}
	.st18{font-size:12px;}
	.st19{fill:#C0C0C0;}
	.st20{enable-background:new    ;}
	.st21{font-size:6px;}
	.st22{fill:none;stroke:#231F20;stroke-width:0.1;stroke-miterlimit:10;}
</style>
<rect x="0.3" class="st0" width="242.2" height="517.9"/>
<ellipse class="st1" cx="16.2" cy="299.1" rx="9.7" ry="8"/>
<ellipse class="st2" cx="16.2" cy="319.6" rx="9.7" ry="8"/>
<ellipse class="st3" cx="16.2" cy="340.1" rx="9.7" ry="8"/>
<ellipse class="st4" cx="139.3" cy="297.2" rx="9.7" ry="8"/>
<ellipse class="st5" cx="139.3" cy="317.7" rx="9.7" ry="8"/>
<ellipse class="st6" cx="139.3" cy="338.2" rx="9.7" ry="8"/>
<ellipse class="st7" cx="139.3" cy="358.7" rx="9.7" ry="8"/>
<rect x="29" y="291" class="st8" width="83.3" height="16.1"/>
<text transform="matrix(1 0 0 1 29.0191 297.3748)" class="st9 st10">National Museum of </text>
<text transform="matrix(1 0 0 1 29.0191 305.7748)" class="st9 st10">American History</text>
<rect x="29" y="311" class="st8" width="83.3" height="16.1"/>
<text transform="matrix(1 0 0 1 29.014 321.5521)" class="st9 st10">National Portrait Gallery</text>
<rect x="29" y="332.1" class="st8" width="83.3" height="16.1"/>
<text transform="matrix(1 0 0 1 29.0191 338.405)" class="st9 st10">Smithsonian Institution </text>
<text transform="matrix(1 0 0 1 29.0191 346.805)" class="st9 st10">Archives</text>
<rect x="152.1" y="289.1" class="st8" width="83.3" height="16.1"/>
<text transform="matrix(0.9346 0 0 1 152.0806 299.6482)" class="st9 st10">Archives of American Art</text>
<rect x="152.1" y="309.6" class="st8" width="83.3" height="16.1"/>
<text transform="matrix(0.9065 0 0 1 152.1177 316.2083)" class="st9 st11">National Museum of African </text>
<text transform="matrix(0.9065 0 0 1 152.0855 323.408)" class="st9 st11">American History and Culture</text>
<rect x="152.1" y="330.2" class="st8" width="83.3" height="16.1"/>
<text transform="matrix(1 0 0 1 152.1252 340.6782)" class="st9 st10">Freer Sackler Gallery</text>
<rect x="152.1" y="350.7" class="st8" width="83.3" height="16.1"/>
<text transform="matrix(1 0 0 1 152.1252 361.1938)" class="st9 st10">Freer Sackler Archives</text>
<rect x="107.7" y="480.7" class="st8" width="71.1" height="9.4"/>
<text transform="matrix(1 0 0 1 107.7466 486.7173)" class="st9 st11">Smithsonian Gardens</text>
<rect x="107.7" y="471" class="st8" width="117.5" height="7.6"/>
<text transform="matrix(1 0 0 1 107.7466 477.0579)" class="st9 st11">Smithsonain Field Book Project</text>
<rect x="107.7" y="432.4" class="st8" width="103.5" height="9.4"/>
<text transform="matrix(1 0 0 1 107.7466 438.4203)" class="st9 st11">National Museum of African Art </text>
<rect x="107.7" y="413.1" class="st8" width="88.3" height="9.4"/>
<text transform="matrix(1 0 0 1 107.7466 419.1015)" class="st9 st11">Human Studies Film </text>
<rect x="107.7" y="442.1" class="st8" width="76.4" height="9.4"/>
<text transform="matrix(1 0 0 1 107.7466 448.0797)" class="st9 st11">National Postal Museum</text>
<rect x="107.7" y="394.8" class="st8" width="45.4" height="9.4"/>
<text transform="matrix(1 0 0 1 107.7466 400.7826)" class="st9 st11">Cooper Hewitt</text>
<rect x="107.7" y="451.7" class="st8" width="129.9" height="16.7"/>
<text transform="matrix(1 0 0 1 107.7466 457.7391)" class="st9 st11">National Museum of the American Indian </text>
<rect x="107.7" y="403.4" class="st8" width="106.7" height="8.4"/>
<text transform="matrix(1 0 0 1 107.7465 409.4428)" class="st9 st11">Folklife Archives and Collections</text>
<rect x="107.7" y="422.8" class="st8" width="111" height="9.4"/>
<text transform="matrix(1 0 0 1 107.7466 428.7609)" class="st9 st11">National Anthropological Archives </text>
<rect x="107.7" y="461.4" class="st8" width="126.8" height="9.7"/>
<text transform="matrix(1 0 0 1 107.7466 467.3985)" class="st9 st11">National Air and Space Museum</text>
<ellipse class="st12" cx="16.2" cy="360.6" rx="9.7" ry="8"/>
<rect x="29" y="352.6" class="st8" width="83.3" height="16.1"/>
<text transform="matrix(0.9447 0 0 1 29.019 358.9199)" class="st9 st10">Smithsonian American Art </text>
<text transform="matrix(1 0 0 1 29.0191 367.3196)" class="st9 st10">Museum</text>
<rect x="8.5" y="139.8" class="st8" width="226.6" height="54.6"/>
<rect x="3.7" y="185" class="st8" width="100.7" height="27.5"/>
<rect x="23.9" y="193.3" class="st8" width="60.9" height="12"/>
<rect x="32.8" y="194.9" class="st8" width="48" height="16.1"/>
<text transform="matrix(1 0 0 1 32.808 206.92)" class="st9 st13">Bigger</text>
<rect x="28.5" y="212.6" class="st8" width="59.8" height="7.6"/>
<rect x="24.5" y="214.2" class="st8" width="56.3" height="9.4"/>
<text transform="matrix(1 0 0 1 24.5447 220.1954)" class="st9 st11">More connections</text>
<rect x="161.6" y="198.8" class="st8" width="24" height="9.9"/>
<text transform="matrix(0.9672 0 0 1 161.5547 204.7773)" class="st9 st11">Smaller</text>
<rect x="146.2" y="213.3" class="st8" width="60.8" height="9.9"/>
<text transform="matrix(0.9672 0 0 1 146.2354 219.6504)" class="st9 st14">Fewer connections</text>
<line class="st15" x1="28.5" y1="127.4" x2="212.7" y2="127.4"/>
<line class="st15" x1="28.5" y1="245.7" x2="212.7" y2="245.7"/>
<text transform="matrix(1.0777 0 0 1 25.4372 22.7305)" class="st16 st17">Cultural Connections </text>
<text transform="matrix(1.0777 0 0 1 36.7531 41.9307)" class="st16 st17">at the Smithsonian</text>
<rect x="2.7" y="63.9" class="st8" width="235.8" height="46"/>
<text transform="matrix(1 0 0 1 14.892 72.5186)"><tspan x="0" y="0" class="st9 st18">Topic tags of items in the Smithsonian’s </tspan><tspan x="0.3" y="14.4" class="st9 st18">cultural museums, topics shared across </tspan><tspan x="38.3" y="28.8" class="st9 st18">museums are connected.</tspan></text>
<text transform="matrix(1 0 0 1 960 540)" class="st18" style="font-family:'MyriadPro-Regular';">https://justinkraus.github.io/si_topics/</text>
<text transform="matrix(1 0 0 1 960 540)" class="st18" style="font-family:'MyriadPro-Regular';">https://justinkraus.github.io/si_topics/</text>
<rect x="2.7" y="142.8" class="st8" width="235.8" height="27"/>
<text transform="matrix(1 0 0 1 23.901 153.1255)"><tspan x="0" y="0" class="st9 st18">Zoom level controls which topics are </tspan><tspan x="-0.7" y="14" class="st9 st18">displayed by number of connections.</tspan></text>
<text transform="matrix(1 0 0 1 68.4623 270.2876)" class="st9 st13">Museum Legend</text>
<ellipse class="st19" cx="49.7" cy="445.8" rx="9.7" ry="8"/>
<rect x="13.2" y="456.5" class="st8" width="69.1" height="33.5"/>
<text transform="matrix(0.8292 0 0 1 33.6797 462.54)" class="st20"><tspan x="0" y="0" class="st9 st11">Shared Fill </tspan><tspan x="-21.8" y="7.2" class="st9 st21">(below total topics threshold)</tspan></text>
<line class="st22" x1="105.7" y1="399.7" x2="59.4" y2="445.8"/>
<line class="st22" x1="105.2" y1="408.7" x2="59.4" y2="445.8"/>
<line class="st22" x1="105.2" y1="419.2" x2="59.4" y2="445.8"/>
<line class="st22" x1="105.6" y1="427.2" x2="59.4" y2="445.8"/>
<line class="st22" x1="59.4" y1="445.8" x2="105.6" y2="436.7"/>
<line class="st22" x1="59.4" y1="445.8" x2="105.2" y2="445.8"/>
<line class="st22" x1="59.4" y1="445.8" x2="105.2" y2="454.7"/>
<line class="st22" x1="59.4" y1="445.8" x2="105.2" y2="464.1"/>
<line class="st22" x1="59.4" y1="445.8" x2="105.2" y2="471.1"/>
<line class="st22" x1="59.4" y1="445.8" x2="105.2" y2="481.2"/>
</svg>
